<svg xmlns="http://www.w3.org/2000/svg" width="77.27" height="77.268" viewBox="0 0 77.27 77.268">
    <defs>
        <style>
            .cls-1{fill:url(#linear-gradient)}
        </style>
        <linearGradient id="linear-gradient" x1="2.211" x2="-1.219" y2="1.855" gradientUnits="objectBoundingBox">
            <stop offset="0" stop-color="#ff63b9"/>
            <stop offset="1" stop-color="#ba37d2"/>
        </linearGradient>
    </defs>
    <g id="architecture">
        <path id="Path_287" d="M76.459 47.738a1.3 1.3 0 0 0-1.417.309l-5.5 5.781v-34.34h.006l5.252-5.666A1.288 1.288 0 0 0 74.726 12l-1.889-1.758 2.623-2.833a1.288 1.288 0 0 0-.073-1.819L69.721.342A1.287 1.287 0 0 0 67.9.413L58.745 10.3H14.166a6.447 6.447 0 0 0-6.439-6.44H6.439A6.447 6.447 0 0 0 0 10.3v55.376a1.288 1.288 0 0 0 1.288 1.288h19.495l-2.7 3.248a1.288 1.288 0 0 0 .166 1.813l5.938 4.944A1.288 1.288 0 0 0 26 76.8l6.591-7.919a3.818 3.818 0 0 0 .845-1.92h23.6l-7.74 8.128a1.288 1.288 0 0 0 .934 2.175h25.751a1.288 1.288 0 0 0 1.288-1.288V48.935a1.289 1.289 0 0 0-.81-1.2zM72.032 13l-2.49 2.7v-1.9l1.545-1.674zm-5.065-.229v.018L56.075 24.564l-3.782-3.5 13.12-14.179 3.782 3.5-2.214 2.39zM53.6 25.782l-2.962.864.633-3.021zM68.913 3.1l3.781 3.5-1.75 1.9L67.163 5zM6.439 6.436h1.288A3.863 3.863 0 0 1 11.59 10.3v48.971a6.373 6.373 0 0 0-3.864-1.322H6.439a6.372 6.372 0 0 0-3.864 1.322V10.3a3.863 3.863 0 0 1 3.864-3.864zm0 54.088h1.288a3.864 3.864 0 0 1 3.864 3.864H2.575a3.864 3.864 0 0 1 3.864-3.864zm24.171 6.713l-.824.989-3.959-3.3.823-.99a1.287 1.287 0 0 1 1.813-.166l1.979 1.644a1.288 1.288 0 0 1 .167 1.813zm-5.768 6.929l-3.959-3.3 3.3-3.96 3.959 3.3zm8.05-9.777a3.824 3.824 0 0 0-.8-.945l-1.98-1.644a3.863 3.863 0 0 0-5.441.5l-1.747 2.1h-8.758V12.875h42.2l-6.834 7.386a1.251 1.251 0 0 0-.229.375c-.015.037-.027.072-.04.111s-.032.077-.041.118l-1.542 7.351a1.288 1.288 0 0 0 1.621 1.5l7.212-2.1c.034-.011.062-.03.094-.041a1.053 1.053 0 0 0 .1-.045 1.274 1.274 0 0 0 .386-.272l9.873-10.67v39.944l-7.482 7.856zm41.8 10.3H53.229l21.465-22.535zm0 0" class="cls-1" data-name="Path 287"/>
        <path id="Path_288" d="M401.164 411.846a1.288 1.288 0 0 0 1.19.795h9.014a1.288 1.288 0 0 0 1.288-1.288v-9.015a1.288 1.288 0 0 0-2.2-.91l-9.015 9.014a1.288 1.288 0 0 0-.277 1.404zm8.917-6.4v4.618h-4.618zm0 0" class="cls-1" data-name="Path 288" transform="translate(-340.538 -340.525)"/>
        <path id="Path_289" d="M165.347 193.824h-9.014v-14.166a1.3 1.3 0 0 0-.379-.912l-7.727-7.727a1.288 1.288 0 0 0-1.821 0l-7.727 7.727a1.3 1.3 0 0 0-.376.912v14.166h-9.014a1.288 1.288 0 1 0 0 2.576h36.059a1.288 1.288 0 0 0 0-2.576zm-18.029-20.073l4.618 4.618H142.7zm-6.439 7.194h12.879v12.879h-12.88zm0 0" class="cls-1" data-name="Path 289" transform="translate(-108.683 -144.889)"/>
        <path id="Path_290" d="M247.465 136.516h2.576v2.576h-2.576zm0 0" class="cls-1" data-name="Path 290" transform="translate(-210.118 -115.913)"/>
        <path id="Path_291" d="M247.465 358.383h2.576v2.576h-2.576zm0 0" class="cls-1" data-name="Path 291" transform="translate(-210.118 -304.297)"/>
    </g>
</svg>
