<svg xmlns="http://www.w3.org/2000/svg" width="77.27" height="77.27" viewBox="0 0 77.27 77.27">
    <defs>
        <style>
            .cls-1{fill:url(#linear-gradient)}
        </style>
        <linearGradient id="linear-gradient" x1="2.211" x2="-1.219" y2="1.855" gradientUnits="objectBoundingBox">
            <stop offset="0" stop-color="#ff63b9"/>
            <stop offset="1" stop-color="#ba37d2"/>
        </linearGradient>
    </defs>
    <g id="computer">
        <path id="Path_292" d="M307.509 346a1.509 1.509 0 1 0 1.509 1.509 1.51 1.51 0 0 0-1.509-1.509zm0 0" class="cls-1" data-name="Path 292" transform="translate(-259.819 -293.783)"/>
        <path id="Path_293" d="M69.724 0H7.546A7.554 7.554 0 0 0 0 7.546v46.18a7.554 7.554 0 0 0 7.546 7.546h23.543v6.942H29.58a7.548 7.548 0 0 0-7.546 7.546 1.509 1.509 0 0 0 1.509 1.509h30.183a1.509 1.509 0 0 0 1.509-1.509 7.554 7.554 0 0 0-7.546-7.546h-1.508v-6.942h23.543a7.554 7.554 0 0 0 7.546-7.546V7.546A7.554 7.554 0 0 0 69.724 0zM7.546 3.018h62.178a4.532 4.532 0 0 1 4.528 4.528v38.635h-6.943V11.47A1.509 1.509 0 0 0 65.8 9.961H53.726a1.509 1.509 0 0 0-1.509 1.509v34.711h-7.554c-.016-1.561-.057-3.1-.121-4.592a97.072 97.072 0 0 0-1.179-12.075 7.547 7.547 0 0 0 2.06-9.843l-5.231-9.06a1.509 1.509 0 0 0-2.614 0l-5.233 9.06a7.545 7.545 0 0 0 1.661 9.524 95.8 95.8 0 0 0-1.272 12.391 132.769 132.769 0 0 0-.127 4.6h-7.555V23.543a1.5 1.5 0 0 0-.149-.651c0-.008-.006-.016-.01-.024l-6.037-12.073a1.509 1.509 0 0 0-2.7 0L10.12 22.868c0 .008-.006.016-.009.024a1.5 1.5 0 0 0-.15.651v22.638H3.018V7.546a4.532 4.532 0 0 1 4.528-4.528zm47.69 43.162v-33.2h9.055V16h-1.509a1.509 1.509 0 0 0 0 3.018h1.509v4.528h-1.509a1.509 1.509 0 1 0 0 3.018h1.509v4.528h-1.509a1.509 1.509 0 0 0 0 3.018h1.509v6.037h-1.509a1.509 1.509 0 0 0 0 3.018h1.509v3.018zm-16.35-15.2a7.556 7.556 0 0 0 1.628-.181c.28 1.8.692 4.971.935 9.34h-5.618c.255-4.366.686-7.592.984-9.448a7.555 7.555 0 0 0 2.07.288zm0-3.018a4.533 4.533 0 0 1-3.926-6.782l3.926-6.8 3.923 6.8a4.53 4.53 0 0 1-3.923 6.787zm-3.193 15.2h5.889c.032.992.054 2 .064 3.018h-6.021c.011-1.012.034-2.02.068-3.018zm-16.677 3.019V25.052h3.018v21.129zm-6.037 0V25.052H16v21.129zm.933-24.147l3.595-7.19 3.595 7.19zm38.046 52.217H25.309a4.536 4.536 0 0 1 4.27-3.018H47.69a4.535 4.535 0 0 1 4.268 3.018zm-8.8-6.037h-9.051v-6.942h9.055zm26.561-9.961H7.546a4.532 4.532 0 0 1-4.528-4.528V49.2h71.233v4.528a4.532 4.532 0 0 1-4.527 4.526zm0 0" class="cls-1" data-name="Path 293"/>
        <path id="Path_294" d="M216.564 346h-9.055a1.509 1.509 0 1 0 0 3.018h9.055a1.509 1.509 0 1 0 0-3.018zm0 0" class="cls-1" data-name="Path 294" transform="translate(-174.911 -293.783)"/>
    </g>
</svg>
