<svg xmlns="http://www.w3.org/2000/svg" id="Group_6" width="147.378" height="127.667" data-name="Group 6" viewBox="0 0 147.378 127.667">
    <defs>
        <style>
            .cls-1{fill:url(#linear-gradient)}
        </style>
        <linearGradient id="linear-gradient" x1=".082" x2="1" y1="1.681" y2=".125" gradientUnits="objectBoundingBox">
            <stop offset="0" stop-color="#f093fb"/>
            <stop offset="1" stop-color="#6dd5ed"/>
        </linearGradient>
    </defs>
    <path id="Path_5" d="M134.788 67.121a4.9 4.9 0 0 0-2.2-.515H38.549l-4.226-25.361a4.91 4.91 0 0 0-3.86-4l-24.55-4.91A4.909 4.909 0 0 0 .02 37.587l4.7 51.724-3.28 3.284a4.913 4.913 0 0 0-1.42 3.471V110.8a4.911 4.911 0 0 0 4.91 4.91h19.64a4.91 4.91 0 1 0 0-9.82H9.84V98.1l3.472-3.472a4.91 4.91 0 0 0 1.438-3.914l-4.335-47.466 14.78 2.947 4.355 26.121a4.912 4.912 0 0 0 4.842 4.11h96.778a17.48 17.48 0 0 1 6.334 14.73 17.48 17.48 0 0 1-6.325 14.73H98.222a4.91 4.91 0 1 0 0 9.82h34.37a4.928 4.928 0 0 0 2.2-.516 26.119 26.119 0 0 0 12.535-24.035 26.116 26.116 0 0 0-12.539-24.034z" class="cls-1" data-name="Path 5" transform="translate(0 -32.23)"/>
    <path id="Path_6" d="M125.341 272.739a4.91 4.91 0 0 0-6.678 1.9l-23.146 41.673H77.29l20.5-36.9a4.91 4.91 0 0 0-8.583-4.772l-24.55 44.191a4.911 4.911 0 0 0 4.291 7.3H98.4a4.911 4.911 0 0 0 4.292-2.524l24.55-44.191a4.91 4.91 0 0 0-1.901-6.677z" class="cls-1" data-name="Path 6" transform="translate(-44.372 -198.464)"/>
    <path id="Path_7" d="M163.5 213.067a4.91 4.91 0 0 0-4.91-4.91H84.935a4.91 4.91 0 1 0 0 9.82h73.652a4.91 4.91 0 0 0 4.913-4.91z" class="cls-1" data-name="Path 7" transform="translate(-55.454 -154.141)"/>
    <path id="Path_8" d="M377.7 217.977a4.91 4.91 0 1 0 0-9.82h-4.91a4.91 4.91 0 1 0 0 9.82z" class="cls-1" data-name="Path 8" transform="translate(-254.926 -154.141)"/>
</svg>
