<svg xmlns="http://www.w3.org/2000/svg" id="Group_7" width="102.456" height="128" data-name="Group 7" viewBox="0 0 102.456 128">
    <defs>
        <style>
            .cls-1{fill:url(#linear-gradient)}
        </style>
        <linearGradient id="linear-gradient" x1="1" x2="9.305" y1="1.558" y2="-5.862" gradientUnits="objectBoundingBox">
            <stop offset="0" stop-color="#f093fb"/>
            <stop offset=".048" stop-color="#aab6f4"/>
            <stop offset=".632" stop-color="#71d3ee"/>
            <stop offset="1" stop-color="#6dd5ed"/>
        </linearGradient>
    </defs>
    <path id="Path_9" d="M228.337 416a4.266 4.266 0 0 0-4.266 4.266v8.534a4.267 4.267 0 1 0 8.533 0v-8.533a4.266 4.266 0 0 0-4.267-4.267z" class="cls-1" data-name="Path 9" transform="translate(-177.12 -305.069)"/>
    <path id="Path_10" d="M279.5 417.4a4.266 4.266 0 0 0-6.033 6.032l4.267 4.267a4.266 4.266 0 0 0 6.033-6.032z" class="cls-1" data-name="Path 10" transform="translate(-212.464 -305.212)"/>
    <path id="Path_11" d="M165.443 417.4l-4.267 4.267a4.266 4.266 0 1 0 6.033 6.032l4.267-4.267a4.266 4.266 0 0 0-6.033-6.032z" class="cls-1" data-name="Path 11" transform="translate(-130.043 -305.212)"/>
    <path id="Path_12" d="M150 109.025l-25.6-51.2a4.255 4.255 0 0 0-.645-.824 102.071 102.071 0 0 0 1.071-14.335c0-23.117-22-40.96-22.933-41.731a4.264 4.264 0 0 0-5.333 0c-.934.772-22.933 18.614-22.933 41.731a97.537 97.537 0 0 0 .635 10.722 3.958 3.958 0 0 0-.391.662l-5.078 14.42a4.267 4.267 0 1 0 8.042 2.83l.427-1.2a150.114 150.114 0 0 0 3.247 11.345 4.151 4.151 0 0 0-2.491 4.924L79.1 90.7l-16.678 9.528 4.732-9.443a4.27 4.27 0 1 0-7.629-3.839L48.475 109a4.267 4.267 0 0 0 5.948 5.632L81.264 99.3l1.037 4.139a4.269 4.269 0 0 0 4.122 3.23h25.6a4.268 4.268 0 0 0 4.138-3.23L117.2 99.3l26.823 15.338a4.267 4.267 0 0 0 5.974-5.61zM99.222 9.993c5.394 5.15 17.067 18 17.067 32.674a126.05 126.05 0 0 1-7.253 38.4H89.409a126.075 126.075 0 0 1-7.253-38.4c0-14.673 11.674-27.524 17.066-32.674zm9.468 88.14H89.755L87.621 89.6h23.2zm10.666-7.433l1.085-4.33a4.153 4.153 0 0 0-2.492-4.924 151.244 151.244 0 0 0 3.178-11.059l14.933 29.866z" class="cls-1" data-name="Path 12" transform="translate(-48.005 .001)"/>
    <path id="Path_13" d="M228.337 92.807a4.267 4.267 0 0 0 4.263-4.267v-4.266a4.267 4.267 0 1 0-8.533 0v4.266a4.267 4.267 0 0 0 4.27 4.267z" class="cls-1" data-name="Path 13" transform="translate(-177.12 -58.672)"/>
    <path id="Path_14" d="M228.337 189.872a4.267 4.267 0 0 0 4.267-4.266v-21.333a4.267 4.267 0 1 0-8.533 0v21.333a4.267 4.267 0 0 0 4.266 4.266z" class="cls-1" data-name="Path 14" transform="translate(-177.12 -117.338)"/>
</svg>
