<svg xmlns="http://www.w3.org/2000/svg" id="web-design" width="72.44" height="72.44" viewBox="0 0 72.44 72.44">
    <defs>
        <style>
            .cls-1{fill:url(#linear-gradient)}
        </style>
        <linearGradient id="linear-gradient" x1="2.211" x2="-1.219" y2="1.855" gradientUnits="objectBoundingBox">
            <stop offset="0" stop-color="#ff63b9"/>
            <stop offset="1" stop-color="#ba37d2"/>
        </linearGradient>
    </defs>
    <g id="Group_18" data-name="Group 18" transform="translate(35.013 60.367)">
        <g id="Group_17" data-name="Group 17">
            <path id="Rectangle_26" d="M0 0h2.415v2.415H0z" class="cls-1" data-name="Rectangle 26"/>
        </g>
    </g>
    <g id="Group_20" data-name="Group 20">
        <g id="Group_19" data-name="Group 19">
            <path id="Path_303" d="M71.233 62.781h-1.207V19.317a4.829 4.829 0 0 0-4.826-4.829h-7.248V4.829A4.829 4.829 0 0 0 53.123 0H19.317a4.829 4.829 0 0 0-4.829 4.829v9.659H7.244a4.829 4.829 0 0 0-4.829 4.829v43.464H1.207A1.207 1.207 0 0 0 0 63.989v3.622a4.829 4.829 0 0 0 4.829 4.829h62.782a4.829 4.829 0 0 0 4.829-4.829v-3.622a1.207 1.207 0 0 0-1.207-1.208zM16.9 4.829a2.415 2.415 0 0 1 2.415-2.415h33.808a2.415 2.415 0 0 1 2.415 2.415v4.83H16.9zm0 7.244h38.637v35.013a2.415 2.415 0 0 1-2.414 2.414H19.317a2.415 2.415 0 0 1-2.417-2.414zm2.415 39.842h33.808a4.829 4.829 0 0 0 4.829-4.829V21.732h4.829v33.805H9.659V21.732h4.829v25.354a4.829 4.829 0 0 0 4.829 4.829zM4.829 19.317A2.415 2.415 0 0 1 7.244 16.9h7.244v2.415H8.451a1.207 1.207 0 0 0-1.207 1.207v36.22a1.207 1.207 0 0 0 1.207 1.207h55.538a1.207 1.207 0 0 0 1.211-1.204v-36.22a1.207 1.207 0 0 0-1.207-1.207h-6.041V16.9H65.2a2.415 2.415 0 0 1 2.415 2.415v43.466H47.086a1.207 1.207 0 0 0-.854.353l-2.06 2.066h-15.9l-2.061-2.062a1.207 1.207 0 0 0-.854-.353H4.829zm65.2 48.293a2.415 2.415 0 0 1-2.415 2.415H4.829a2.415 2.415 0 0 1-2.415-2.415V65.2h22.44l2.061 2.061a1.207 1.207 0 0 0 .854.354h16.9a1.207 1.207 0 0 0 .854-.354l2.063-2.061h22.44z" class="cls-1" data-name="Path 303"/>
        </g>
    </g>
    <g id="Group_22" data-name="Group 22" transform="translate(20.525 38.635)">
        <g id="Group_21" data-name="Group 21">
            <path id="Rectangle_27" d="M0 0h31.391v2.415H0z" class="cls-1" data-name="Rectangle 27"/>
        </g>
    </g>
    <g id="Group_24" data-name="Group 24" transform="translate(20.525 43.464)">
        <g id="Group_23" data-name="Group 23">
            <path id="Rectangle_28" d="M0 0h28.976v2.415H0z" class="cls-1" data-name="Rectangle 28"/>
        </g>
    </g>
    <g id="Group_26" data-name="Group 26" transform="translate(27.769 33.805)">
        <g id="Group_25" data-name="Group 25">
            <path id="Rectangle_29" d="M0 0h24.147v2.415H0z" class="cls-1" data-name="Rectangle 29"/>
        </g>
    </g>
    <g id="Group_28" data-name="Group 28" transform="translate(19.317 4.829)">
        <g id="Group_27" data-name="Group 27">
            <path id="Rectangle_30" d="M0 0h2.415v2.415H0z" class="cls-1" data-name="Rectangle 30"/>
        </g>
    </g>
    <g id="Group_30" data-name="Group 30" transform="translate(24.147 4.829)">
        <g id="Group_29" data-name="Group 29">
            <path id="Rectangle_31" d="M0 0h2.415v2.415H0z" class="cls-1" data-name="Rectangle 31"/>
        </g>
    </g>
    <g id="Group_32" data-name="Group 32" transform="translate(28.976 4.829)">
        <g id="Group_31" data-name="Group 31">
            <path id="Rectangle_32" d="M0 0h2.415v2.415H0z" class="cls-1" data-name="Rectangle 32"/>
        </g>
    </g>
    <g id="Group_34" data-name="Group 34" transform="translate(22.939 33.805)">
        <g id="Group_33" data-name="Group 33">
            <path id="Rectangle_33" d="M0 0h2.415v2.415H0z" class="cls-1" data-name="Rectangle 33"/>
        </g>
    </g>
    <g id="Group_36" data-name="Group 36" transform="translate(25.354 18.352)">
        <g id="Group_35" data-name="Group 35">
            <path id="Path_304" d="M174.761 123.532l-1.449-1.932-4.829 3.622a1.207 1.207 0 0 0 0 1.932l4.829 3.622 1.449-1.932-3.541-2.656z" class="cls-1" data-name="Path 304" transform="translate(-167.999 -121.6)"/>
        </g>
    </g>
    <g id="Group_38" data-name="Group 38" transform="translate(40.325 18.352)">
        <g id="Group_37" data-name="Group 37">
            <path id="Path_305" d="M273.72 125.463a1.213 1.213 0 0 0-.241-.241l-4.829-3.622-1.449 1.932 3.541 2.656-3.541 2.656 1.449 1.932 4.829-3.622a1.207 1.207 0 0 0 .241-1.691z" class="cls-1" data-name="Path 305" transform="translate(-267.2 -121.6)"/>
        </g>
    </g>
    <g id="Group_40" data-name="Group 40" transform="translate(32.684 16.457)">
        <g id="Group_39" data-name="Group 39">
            <path id="Rectangle_34" d="M0 0h13.003v2.415H0z" class="cls-1" data-name="Rectangle 34" transform="rotate(-68.191 8.917 6.036)"/>
        </g>
    </g>
</svg>
